
		<svg xmlns="http://www.w3.org/2000/svg" xmlns:xlink="http://www.w3.org/1999/xlink" version="1.1" width="3188.087774294671" height="3000">
			<rect fill="#000000" width="3188.087774294671" height="3000"/>
			<g transform="scale(9.404388714733543) translate(10, 10)">
				<defs id="SvgjsDefs7877"><linearGradient id="SvgjsLinearGradient7883"><stop id="SvgjsStop7884" stop-color="#8f5e25" offset="0"></stop><stop id="SvgjsStop7885" stop-color="#fbf4a1" offset="0.5"></stop><stop id="SvgjsStop7886" stop-color="#8f5e25" offset="1"></stop></linearGradient></defs><g id="SvgjsG7878" featureKey="root" fill="#000000"></g><g id="SvgjsG7879" featureKey="container1" fill="url(#SvgjsLinearGradient7883)" transform="matrix(1.4197895568593115,0,0,1.4197895568593115,20,5)"><defs xmlns="http://www.w3.org/2000/svg"></defs><g xmlns="http://www.w3.org/2000/svg">  <path d="M98.254,0C44.077,0,0,44.076,0,98.254s44.077,98.254,98.254,98.254c54.177,0,98.254-44.076,98.254-98.254    S152.431,0,98.254,0z M98.254,195.508C44.628,195.508,1,151.88,1,98.254S44.628,1,98.254,1c53.626,0,97.254,43.628,97.254,97.254    S151.88,195.508,98.254,195.508z"></path>  <path d="M98.254,5.453c-51.171,0-92.801,41.63-92.801,92.801s41.63,92.801,92.801,92.801s92.802-41.63,92.802-92.801    S149.425,5.453,98.254,5.453z"></path></g></g><g id="SvgjsG7880" featureKey="symbol1" fill="#000000" transform="matrix(1.5014023937240837,0,0,1.5014023937240837,84.42988031379582,49.84007587571879)"><g id="SvgjsG7881" transform="matrix(1,0,0,1,0,0)"><g xmlns="http://www.w3.org/2000/svg"><g><path fill="none" d="M58.486,74.271v-4.253c-0.296-0.044-0.612-0.07-0.951-0.076v4.425C57.879,74.362,58.193,74.326,58.486,74.271    z"></path><path fill="none" d="M56.582,69.957c-0.438,0.021-0.748,0.059-0.957,0.098v4.319h0.957V69.957z"></path><path fill="none" d="M60.763,72.125c0-0.941-0.498-1.534-1.324-1.863v3.724C60.291,73.59,60.763,72.922,60.763,72.125z"></path><path fill="none" d="M59.438,76.012v4.561c1.06-0.363,1.804-1.077,1.804-2.299C61.242,77.115,60.518,76.391,59.438,76.012z"></path><path fill="none" d="M55.625,75.688v5.114c0.243,0.037,0.58,0.056,0.957,0.066v-5.181H55.625z"></path><path fill="none" d="M57.535,75.699v5.172c0.326-0.009,0.644-0.037,0.951-0.082v-5.002C58.182,75.738,57.865,75.709,57.535,75.699    z"></path><path d="M63.344,78.294c0-1.989-1.713-3.044-3.174-3.363v-0.04c1.621-0.517,2.604-1.651,2.604-2.944    c0-1.056-0.48-1.851-1.279-2.368c-0.549-0.388-1.225-0.638-2.056-0.793v-2.434h-0.952v2.302c-0.295-0.023-0.617-0.034-0.951-0.04    v-2.262h-0.953v2.265c-1.145,0.032-2.221,0.132-2.944,0.265v13.195c0.639,0.075,1.646,0.15,2.944,0.156v1.195h0.953v-1.229    c0.32-0.013,0.66-0.015,0.951-0.044v1.273h0.952v-1.424c1.098-0.199,1.978-0.525,2.604-1.023    C62.818,80.324,63.344,79.448,63.344,78.294z M60.763,72.125c0,0.797-0.472,1.465-1.324,1.86v-3.724    C60.265,70.591,60.763,71.184,60.763,72.125z M58.486,70.019v4.253c-0.293,0.055-0.607,0.091-0.951,0.096v-4.425    C57.874,69.948,58.19,69.975,58.486,70.019z M55.625,70.055c0.209-0.039,0.52-0.076,0.957-0.098v4.417h-0.957V70.055z     M55.625,80.802v-5.114h0.957v5.181C56.205,80.857,55.868,80.839,55.625,80.802z M57.535,80.871v-5.172    c0.33,0.01,0.646,0.039,0.951,0.088v5.002C58.179,80.834,57.861,80.862,57.535,80.871z M59.438,80.572v-4.561    c1.079,0.379,1.804,1.104,1.804,2.262C61.242,79.495,60.498,80.209,59.438,80.572z"></path></g><g><g><polygon fill="none" points="56.213,23.425 62.471,14.371 57.757,12.754 56.957,9.756 51.025,9.713 49.751,9.773 48.459,9.773      43.05,9.757 42.24,12.755 37.529,14.371 43.787,23.425    "></polygon><path d="M50,31.957c-16.709,0-30.305,13.595-30.305,30.305S33.291,92.566,50,92.566c16.711,0,30.305-13.595,30.305-30.305     S66.711,31.957,50,31.957z M50,89.622c-15.086,0-27.359-12.273-27.359-27.36S34.914,34.902,50,34.902     s27.359,12.272,27.359,27.359S65.086,89.622,50,89.622z"></path><path d="M42.676,27.794c-0.48,0-0.87,0.681-0.87,1.521c0,0.84,0.39,1.522,0.87,1.522h14.647c0.48,0,0.87-0.683,0.87-1.522     c0-0.841-0.39-1.521-0.87-1.521H42.676z"></path><path d="M57.787,26.425l9.402-13.606l-6.946-2.383l-0.8-3.002L53.251,7.44L50,7.434L46.626,7.44l-6.057-0.007l-0.81,3.001     l-6.949,2.384l9.402,13.606H57.787z M42.24,12.755l0.81-2.998l5.409,0.017h1.292l1.274-0.061l5.932,0.043l0.8,2.998l4.714,1.617     l-6.258,9.054H43.787l-6.258-9.054L42.24,12.755z"></path></g><g><path d="M40.983,54.016c-2.011-0.678-3.383-1.617-3.383-3.439c0-1.654,1.165-2.951,3.177-3.346v-1.785h1.842v1.654     c1.258,0.056,2.104,0.319,2.725,0.62l-0.546,2.124c-0.487-0.206-1.353-0.639-2.706-0.639c-1.221,0-1.616,0.526-1.616,1.053     c0,0.62,0.658,1.015,2.256,1.615c2.235,0.79,3.138,1.823,3.138,3.515c0,1.673-1.184,3.102-3.345,3.477v1.917h-1.842v-1.785     c-1.259-0.057-2.481-0.395-3.194-0.808l0.563-2.199c0.789,0.432,1.897,0.827,3.12,0.827c1.07,0,1.804-0.413,1.804-1.165     C42.976,54.936,42.375,54.484,40.983,54.016z"></path><path d="M32.302,72.162c-4.101,0.775-4.019,0.76-4.019,0.76l4.479-13.16l10.406,10.346l-3.77,0.729l-1.244,0.22     c0,0,1.733,6.639,10.075,7.185C48.229,78.24,38.266,83.945,32.302,72.162z"></path><path d="M71.717,54.652l-5.695,13.068l-9.754-11.459l3.915-0.423l1.288-0.12c0,0-1.205-6.929-9.683-8.197     c0,0,10.665-4.981,15.758,7.564C71.597,54.664,71.715,54.652,71.717,54.652L71.717,54.652L71.717,54.652z"></path></g></g></g></g></g><g id="SvgjsG7882" featureKey="text1" fill="#000000" transform="matrix(0.6120549246923552,0,0,0.6120549246923552,74.42942973125437,212.68228295507524)"><path d="M8.7119 16.644199999999998 c1.2712 0.74576 2.0847 1.9998 2.0847 3.4744 c0 2.3051 -2.0339 3.8814 -3.9661 3.8814 l-5.5593 0 c-0.18644 0 -0.33898 -0.15238 -0.33898 -0.33881 l0 -12.898 c0 -0.16949 0.13543 -0.32203 0.32203 -0.32203 l4.9831 0 c2.1356 0 3.7966 2.0508 3.7966 3.6271 c0 1.0678 -0.52542 1.9661 -1.322 2.5763 z M5.8136 15.9661 c2.2373 0 2.2542 -3.1864 0 -3.1864 l-2.4576 0 l0 3.1864 l2.4576 0 z M6.2205 21.661 c2.6949 0 2.7288 -3.4237 -0.016949 -3.4237 l-2.8475 0 l0 3.4237 l2.8644 0 z M21.101713559322036 21.6612 c0.18644 0 0.32203 0.13592 0.32203 0.33915 l0 1.678 c0 0.16949 -0.13559 0.32186 -0.32203 0.32186 l-8.0169 0 c-0.16949 0 -0.25424 -0.13543 -0.25424 -0.30508 l0 -12.932 c0 -0.16949 0.13559 -0.32203 0.32203 -0.32203 l1.7627 0 c0.18644 0 0.33898 0.15254 0.33898 0.32203 l0 10.898 l5.8475 0 z M30.304932203389832 24.11864 c3.7966 0 6.8983 -3.0507 6.8983 -6.9151 c0 -3.8305 -3.1017 -6.8814 -6.8983 -6.8814 c-3.8305 0 -6.9322 3.0508 -6.9322 6.8814 c0 3.8644 3.1017 6.9151 6.9322 6.9151 z M30.304932203389832 21.7798 c-2.4407 0 -4.5085 -2.1017 -4.5085 -4.5763 c0 -2.4576 2.0678 -4.5422 4.5085 -4.5422 s4.4915 2.0846 4.4915 4.5422 c0 2.4746 -2.0508 4.5763 -4.4915 4.5763 z M50.88133898305085 21.4578 c0.16949 0.13559 0.16933 0.30508 0.016784 0.45763 c-1.2542 1.3729 -3.0339 2.2032 -5.0678 2.2032 c-3.7288 0 -6.8475 -2.9998 -6.8475 -6.8642 c0 -3.8475 3.1186 -6.9322 6.8475 -6.9322 c2.0508 0 3.8475 0.84746 5.1186 2.2373 c0.15254 0.15254 0.13559 0.32203 -0.016949 0.45763 l-1.4068 1.1356 c-0.16966 0.13559 -0.32203 0.11864 -0.45763 -0.033898 c-0.72881 -0.76271 -1.8644 -1.4575 -3.2203 -1.4575 c-2.4915 0 -4.4405 2.1524 -4.4405 4.5931 c0 2.4746 1.949 4.5254 4.4405 4.5254 c1.339 0 2.4576 -0.66102 3.1695 -1.4068 c0.15254 -0.15254 0.30508 -0.16949 0.47458 -0.050847 z M63.83050847457628 23.20339 c0.30508 0.35593 0.13543 0.79644 -0.3222 0.79644 l-1.8305 0 c-0.16949 0 -0.27119 -0.033732 -0.38983 -0.16933 l-5.9492 -6.6271 l0 6.4746 c0 0.16949 -0.15254 0.32186 -0.32203 0.32186 l-1.7627 0 c-0.18644 0 -0.33898 -0.15238 -0.33898 -0.32186 l0 -11.763 c-0.016949 -0.45763 -0.067797 -0.74576 -0.13559 -1.0508 c-0.050847 -0.22034 0.033898 -0.42373 0.22034 -0.42373 l1.5085 0 c0.49153 0 0.83051 0.32203 0.83051 0.77966 l0 5.3559 l5.0847 -5.9492 c0.10169 -0.13559 0.22034 -0.18644 0.40695 -0.18644 l1.8303 0 c0.42373 0 0.5761 0.44068 0.33881 0.72881 l-4.8983 5.7288 z M77.25422033898306 21.4578 c0.16949 0.13559 0.16933 0.30508 0.016784 0.45763 c-1.2542 1.3729 -3.0339 2.2032 -5.0678 2.2032 c-3.7288 0 -6.8475 -2.9998 -6.8475 -6.8642 c0 -3.8475 3.1186 -6.9322 6.8475 -6.9322 c2.0508 0 3.8475 0.84746 5.1186 2.2373 c0.15254 0.15254 0.13559 0.32203 -0.016949 0.45763 l-1.4068 1.1356 c-0.16966 0.13559 -0.32203 0.11864 -0.45763 -0.033898 c-0.72881 -0.76271 -1.8644 -1.4575 -3.2203 -1.4575 c-2.4915 0 -4.4405 2.1524 -4.4405 4.5931 c0 2.4746 1.949 4.5254 4.4405 4.5254 c1.339 0 2.4576 -0.66102 3.1695 -1.4068 c0.15254 -0.15254 0.30508 -0.16949 0.47458 -0.050847 z M90.50838983050849 10.441 c0.18644 0 0.33881 0.15254 0.33881 0.32203 l0 12.898 c0 0.20339 -0.13559 0.33881 -0.30525 0.33881 l-1.288 0 c-0.54237 0 -0.84763 -0.37288 -0.84763 -0.86441 l0 -4.5422 l-6.5085 0 l0 5.0678 c0 0.16949 -0.13559 0.33881 -0.32203 0.33881 l-1.7627 0 c-0.18644 0 -0.33898 -0.15238 -0.33898 -0.33881 l0 -12.898 c0 -0.16949 0.13559 -0.32203 0.3222 -0.32203 l1.7627 0 c0.18644 0 0.33898 0.15254 0.33898 0.32203 l0 5.3898 l6.5085 0 l0 -5.3898 c0 -0.16949 0.13559 -0.32203 0.33898 -0.32203 l1.7629 0 z M106.28764406779662 23.62712 c0.10169 0.20339 0.034229 0.37271 -0.20305 0.37271 l-1.9831 0 c-0.16949 0 -0.27119 -0.08458 -0.33898 -0.22017 l-0.91525 -1.9322 l-6.5256 0 l-0.91525 1.9322 c-0.067797 0.13559 -0.18644 0.22017 -0.33898 0.22017 l-2 0 c-0.20339 0 -0.32203 -0.16933 -0.22034 -0.37271 l6.3898 -13.102 c0.067797 -0.11881 0.15238 -0.16966 0.23712 -0.16966 l0.20339 0 c0.10169 0 0.16949 0.050847 0.23729 0.16966 z M97.35614406779662 19.6441 l4.4576 0 l-2.2203 -4.7288 z M110.37274915254238 10.441 l-1.6778 0 c-0.18644 0 -0.32203 0.15254 -0.32203 0.32203 l0 12.898 c0 0.18644 0.15254 0.33881 0.33898 0.33881 l1.678 0 c0.16933 0 0.32186 -0.16933 0.32186 -0.33881 l0 -12.898 c0 -0.16949 -0.16949 -0.32203 -0.33898 -0.32203 z M124.7797966101695 10.441 c0.16949 0 0.33915 0.15254 0.33915 0.32203 l0 12.915 c0 0.16949 -0.13559 0.32186 -0.32203 0.32186 l-0.55932 0 c-0.45763 0 -0.94915 -0.32203 -1.5593 -1 l-6.9322 -7.7456 l0 8.4068 c0 0.16949 -0.15254 0.32203 -0.33915 0.32203 l-1.7288 0.016784 c-0.18644 0 -0.33898 -0.15238 -0.33898 -0.33881 l0 -12.898 c0 -0.16949 0.15254 -0.32203 0.32203 -0.32203 l1 0 c0.18644 0 0.30508 0.067797 0.45763 0.25424 l7.5763 8.678 l0 -8.6102 c0 -0.16949 0.13559 -0.32203 0.32203 -0.32203 l1.7627 0 z M139.05083050847458 21.4578 c0.16949 0.13559 0.16933 0.30508 0.016784 0.45763 c-1.2542 1.3729 -3.0339 2.2032 -5.0678 2.2032 c-3.7288 0 -6.8475 -2.9998 -6.8475 -6.8642 c0 -3.8475 3.1186 -6.9322 6.8475 -6.9322 c2.0508 0 3.8475 0.84746 5.1186 2.2373 c0.15254 0.15254 0.13559 0.32203 -0.016949 0.45763 l-1.4068 1.1356 c-0.16966 0.13559 -0.32203 0.11864 -0.45763 -0.033898 c-0.72881 -0.76271 -1.8644 -1.4575 -3.2203 -1.4575 c-2.4915 0 -4.4405 2.1524 -4.4405 4.5931 c0 2.4746 1.949 4.5254 4.4405 4.5254 c1.339 0 2.4576 -0.66102 3.1695 -1.4068 c0.15254 -0.15254 0.30508 -0.16949 0.47458 -0.050847 z M147.949 24.11864 c3.7966 0 6.8983 -3.0507 6.8983 -6.9151 c0 -3.8305 -3.1017 -6.8814 -6.8983 -6.8814 c-3.8305 0 -6.9322 3.0508 -6.9322 6.8814 c0 3.8644 3.1017 6.9151 6.9322 6.9151 z M147.949 21.7798 c-2.4407 0 -4.5085 -2.1017 -4.5085 -4.5763 c0 -2.4576 2.0678 -4.5422 4.5085 -4.5422 s4.4915 2.0846 4.4915 4.5422 c0 2.4746 -2.0508 4.5763 -4.4915 4.5763 z M159.220206779661 10.441 l-1.6778 0 c-0.18644 0 -0.32203 0.15254 -0.32203 0.32203 l0 12.898 c0 0.18644 0.15254 0.33881 0.33898 0.33881 l1.678 0 c0.16933 0 0.32186 -0.16933 0.32186 -0.33881 l0 -12.898 c0 -0.16949 -0.16949 -0.32203 -0.33898 -0.32203 z M173.62725423728813 10.441 c0.16949 0 0.33915 0.15254 0.33915 0.32203 l0 12.915 c0 0.16949 -0.13559 0.32186 -0.32203 0.32186 l-0.55932 0 c-0.45763 0 -0.94915 -0.32203 -1.5593 -1 l-6.9322 -7.7456 l0 8.4068 c0 0.16949 -0.15254 0.32203 -0.33915 0.32203 l-1.7288 0.016784 c-0.18644 0 -0.33898 -0.15238 -0.33898 -0.33881 l0 -12.898 c0 -0.16949 0.15254 -0.32203 0.32203 -0.32203 l1 0 c0.18644 0 0.30508 0.067797 0.45763 0.25424 l7.5763 8.678 l0 -8.6102 c0 -0.16949 0.13559 -0.32203 0.32203 -0.32203 l1.7627 0 z M176.1016981355932 21.6442 l0.96576 -1.1188 c0.20339 -0.23746 0.45763 -0.23746 0.64407 -0.10186 c0.55932 0.47458 1.5593 1.3729 2.8136 1.3729 c1.2203 0 2.2712 -0.4578 2.2712 -1.5086 c0 -1.1017 -1.1356 -1.4237 -2.3051 -1.8983 c-2.4237 -1 -4.1864 -2.0339 -4.1864 -4.2373 c0 -1.7288 1.2712 -3.8136 4.339 -3.8136 c2.0847 0 3.5934 1.1866 4.0341 1.6273 c0.18644 0.18644 0.28814 0.42373 0.11864 0.62712 l-0.84746 1.1186 c-0.16966 0.22034 -0.40678 0.32203 -0.67797 0.13559 c-0.54237 -0.42373 -1.4237 -1.2034 -2.6102 -1.2034 c-1.2034 0 -1.9492 0.69492 -1.9492 1.5085 c0 0.89831 0.77966 1.339 2.0508 1.8475 c2.2203 0.93254 4.4407 1.9325 4.4407 4.3224 c0 1.9831 -1.9659 3.7964 -4.6439 3.7964 c-2.4237 0 -3.9322 -1.5422 -4.3559 -1.949 c-0.15254 -0.13559 -0.30508 -0.32203 -0.10169 -0.52542 z M198.27110169491527 10.441 c0.18644 0 0.33881 0.15254 0.33881 0.32203 l0 12.898 c0 0.20339 -0.13559 0.33881 -0.30525 0.33881 l-1.288 0 c-0.54237 0 -0.84763 -0.37288 -0.84763 -0.86441 l0 -4.5422 l-6.5085 0 l0 5.0678 c0 0.16949 -0.13559 0.33881 -0.32203 0.33881 l-1.7627 0 c-0.18644 0 -0.33898 -0.15238 -0.33898 -0.33881 l0 -12.898 c0 -0.16949 0.13559 -0.32203 0.3222 -0.32203 l1.7627 0 c0.18644 0 0.33898 0.15254 0.33898 0.32203 l0 5.3898 l6.5085 0 l0 -5.3898 c0 -0.16949 0.13559 -0.32203 0.33898 -0.32203 l1.7629 0 z M207.83035593220342 24.11864 c3.7966 0 6.8983 -3.0507 6.8983 -6.9151 c0 -3.8305 -3.1017 -6.8814 -6.8983 -6.8814 c-3.8305 0 -6.9322 3.0508 -6.9322 6.8814 c0 3.8644 3.1017 6.9151 6.9322 6.9151 z M207.83035593220342 21.7798 c-2.4407 0 -4.5085 -2.1017 -4.5085 -4.5763 c0 -2.4576 2.0678 -4.5422 4.5085 -4.5422 s4.4915 2.0846 4.4915 4.5422 c0 2.4746 -2.0508 4.5763 -4.4915 4.5763 z M222.35576271186443 10.441 c2.8136 0 4.661 2.5424 4.661 4.6271 c0 2.2373 -1.8475 4.661 -4.661 4.661 l-3 0 l0 3.9322 c0 0.20339 -0.13559 0.33881 -0.32203 0.33881 l-1.7966 0 c-0.16949 0 -0.30508 -0.13543 -0.30508 -0.33881 l0 -12.898 c0 -0.16949 0.13559 -0.32203 0.32203 -0.32203 l5.1017 0 z M222.1015627118644 17.39 c1.5932 0 2.4915 -1.1697 2.4915 -2.3222 c0 -1.1354 -0.89831 -2.288 -2.4915 -2.288 l-2.7458 0 l0 4.6102 l2.7458 0 z M229.83052372881357 24.11864 c-0.83051 0 -1.5424 -0.69475 -1.5424 -1.5422 c0 -0.83051 0.71186 -1.5424 1.5424 -1.5424 c0.84746 0 1.5424 0.71186 1.5424 1.5424 c0 0.84746 -0.69492 1.5422 -1.5424 1.5422 z M244.796593220339 21.4578 c0.16949 0.13559 0.16933 0.30508 0.016784 0.45763 c-1.2542 1.3729 -3.0339 2.2032 -5.0678 2.2032 c-3.7288 0 -6.8475 -2.9998 -6.8475 -6.8642 c0 -3.8475 3.1186 -6.9322 6.8475 -6.9322 c2.0508 0 3.8475 0.84746 5.1186 2.2373 c0.15254 0.15254 0.13559 0.32203 -0.016949 0.45763 l-1.4068 1.1356 c-0.16966 0.13559 -0.32203 0.11864 -0.45763 -0.033898 c-0.72881 -0.76271 -1.8644 -1.4575 -3.2203 -1.4575 c-2.4915 0 -4.4405 2.1524 -4.4405 4.5931 c0 2.4746 1.949 4.5254 4.4405 4.5254 c1.339 0 2.4576 -0.66102 3.1695 -1.4068 c0.15254 -0.15254 0.30508 -0.16949 0.47458 -0.050847 z M253.69476271186443 24.11864 c3.7966 0 6.8983 -3.0507 6.8983 -6.9151 c0 -3.8305 -3.1017 -6.8814 -6.8983 -6.8814 c-3.8305 0 -6.9322 3.0508 -6.9322 6.8814 c0 3.8644 3.1017 6.9151 6.9322 6.9151 z M253.69476271186443 21.7798 c-2.4407 0 -4.5085 -2.1017 -4.5085 -4.5763 c0 -2.4576 2.0678 -4.5422 4.5085 -4.5422 s4.4915 2.0846 4.4915 4.5422 c0 2.4746 -2.0508 4.5763 -4.4915 4.5763 z M278.0681694915254 10.441 c0.18644 0 0.33915 0.15238 0.33915 0.32186 l0 12.898 c0 0.16949 -0.13559 0.33881 -0.3222 0.33881 l-1.7456 0 c-0.20339 0 -0.33898 -0.15238 -0.33898 -0.33881 l0 -8.2203 l-4.9492 7.8305 c-0.10186 0.16949 -0.20356 0.23729 -0.3561 0.23729 l-0.10169 0 c-0.15254 0 -0.25424 -0.067797 -0.35593 -0.23729 l-4.9322 -7.8475 l0 8.2375 c0 0.16949 -0.15254 0.33881 -0.33898 0.33881 l-1.7458 0 c-0.18644 0 -0.33898 -0.15238 -0.33898 -0.33881 l0 -12.898 c0 -0.16949 0.13559 -0.32203 0.33898 -0.32203 l1.4576 0 c0.16949 0 0.28814 0.067797 0.38983 0.22034 l5.5763 8.8134 l5.5932 -8.8134 c0.084746 -0.15254 0.20339 -0.22034 0.38983 -0.22034 l1.4407 0 z"></path></g>
			</g>
		</svg>
	