<svg width="300" height="272" viewBox="0 0 300 272" fill="none" xmlns="http://www.w3.org/2000/svg">
<rect width="300" height="272" fill="white"/>
<path d="M248 87.2361V104H52L52 87.2361L150 38.2361L248 87.2361Z" stroke="#19AF00" stroke-width="4"/>
<path d="M62 110H238V116C238 119.314 235.314 122 232 122H68C64.6863 122 62 119.314 62 116V110Z" stroke="#19AF00" stroke-width="4"/>
<path d="M68 204H232C235.314 204 238 206.686 238 210V216H62V210C62 206.686 64.6863 204 68 204Z" stroke="#19AF00" stroke-width="4"/>
<rect x="52" y="222" width="196" height="12" stroke="#19AF00" stroke-width="4"/>
<path d="M163.631 72.2036C165.881 71.0736 167.289 69.0834 166.96 65.7679C166.517 61.2369 162.549 59.7175 157.539 59.2849L157.538 53H153.657L153.655 59.1196C152.634 59.1196 151.593 59.1394 150.557 59.1599L150.556 53.0008L146.678 53.0005L146.677 59.2838C145.837 59.3007 145.011 59.3168 144.205 59.3168V59.2982L138.851 59.2961L138.852 63.3813C138.852 63.3813 141.719 63.3281 141.671 63.3797C143.243 63.3808 143.756 64.2805 143.904 65.0571L143.905 72.2168V82.274C143.836 82.7613 143.545 83.5401 142.446 83.5415C142.496 83.5849 139.622 83.541 139.622 83.541L138.852 88.1092H143.902C144.844 88.1103 145.768 88.1247 146.675 88.1318L146.679 94.4878L150.556 94.4889L150.555 88.1995C151.621 88.221 152.651 88.2303 153.657 88.229L153.656 94.4889H157.537L157.539 88.1435C164.064 87.7741 168.632 86.1538 169.199 80.1136C169.657 75.2506 167.335 73.0799 163.631 72.2036ZM150.649 63.657C152.839 63.657 159.724 62.9698 159.724 67.4779C159.724 71.7999 152.841 71.295 150.649 71.295V63.657V63.657ZM150.648 83.5725L150.649 75.1509C153.28 75.1502 161.529 74.4048 161.531 79.3598C161.532 84.1116 153.28 83.5706 150.648 83.5725Z" fill="#19AF00"/>
<rect x="76" y="138" width="16" height="50" stroke="#19AF00" stroke-width="4"/>
<path d="M72 130H96V136C96 137.105 95.1046 138 94 138H74C72.8954 138 72 137.105 72 136V130Z" stroke="#19AF00" stroke-width="4"/>
<path d="M74 188H94C95.1046 188 96 188.895 96 190V196H72V190C72 188.895 72.8954 188 74 188Z" stroke="#19AF00" stroke-width="4"/>
<rect x="120" y="138" width="16" height="50" stroke="#19AF00" stroke-width="4"/>
<path d="M116 130H140V136C140 137.105 139.105 138 138 138H118C116.895 138 116 137.105 116 136V130Z" stroke="#19AF00" stroke-width="4"/>
<path d="M118 188H138C139.105 188 140 188.895 140 190V196H116V190C116 188.895 116.895 188 118 188Z" stroke="#19AF00" stroke-width="4"/>
<rect x="208" y="138" width="16" height="50" stroke="#19AF00" stroke-width="4"/>
<path d="M204 130H228V136C228 137.105 227.105 138 226 138H206C204.895 138 204 137.105 204 136V130Z" stroke="#19AF00" stroke-width="4"/>
<path d="M206 188H226C227.105 188 228 188.895 228 190V196H204V190C204 188.895 204.895 188 206 188Z" stroke="#19AF00" stroke-width="4"/>
<rect x="164" y="138" width="16" height="50" stroke="#19AF00" stroke-width="4"/>
<path d="M160 130H184V136C184 137.105 183.105 138 182 138H162C160.895 138 160 137.105 160 136V130Z" stroke="#19AF00" stroke-width="4"/>
<path d="M162 188H182C183.105 188 184 188.895 184 190V196H160V190C160 188.895 160.895 188 162 188Z" stroke="#19AF00" stroke-width="4"/>
</svg>
